<svg width="287" height="96" viewBox="0 0 287 96" fill="none" xmlns="http://www.w3.org/2000/svg">
<g filter="url(#filter0_d_42_540)">
<path d="M66.0364 88H72.0727C75.1273 88 77.6364 85.6717 78 82.6885L84 22.734H65.8182V8H58.6545V22.734H40.5818L41.6727 31.2469C47.8909 32.9568 53.7091 36.0491 57.2 39.4688C62.4364 44.6348 66.0364 49.9827 66.0364 58.714V88ZM4 84.362V80.7603H58.6545V84.362C58.6545 86.3629 57.0182 88 54.9818 88H7.67273C5.63636 88 4 86.3629 4 84.362ZM58.6545 58.8959C58.6545 29.7917 4 29.7917 4 58.8959H58.6545ZM4.07273 66.2083H58.6182V73.4843H4.07273V66.2083Z" fill="black"/>
</g>
<g filter="url(#filter1_d_42_540)">
<path d="M102.02 45V10.2509H125.435V16.3082H109.367V24.5883H124.23V30.6456H109.367V38.9427H125.503V45H102.02ZM138.368 10.2509V45H131.14V10.2509H138.368ZM155.353 45V10.2509H169.266C171.822 10.2509 173.955 10.6298 175.663 11.3877C177.371 12.1456 178.655 13.1976 179.514 14.5436C180.374 15.8784 180.804 17.4168 180.804 19.1588C180.804 20.5161 180.532 21.7095 179.989 22.7389C179.446 23.7569 178.7 24.594 177.75 25.25C176.811 25.8948 175.736 26.3529 174.526 26.6244V26.9637C175.849 27.0203 177.088 27.3936 178.242 28.0836C179.407 28.7736 180.351 29.7407 181.075 30.985C181.799 32.2179 182.161 33.6884 182.161 35.3965C182.161 37.2403 181.703 38.8861 180.787 40.334C179.882 41.7706 178.541 42.9074 176.766 43.7444C174.99 44.5815 172.801 45 170.199 45H155.353ZM162.7 38.9936H168.689C170.736 38.9936 172.23 38.6033 173.168 37.8228C174.107 37.031 174.577 35.979 174.577 34.6669C174.577 33.7054 174.345 32.857 173.881 32.1218C173.417 31.3865 172.756 30.8097 171.896 30.3911C171.048 29.9726 170.035 29.7633 168.859 29.7633H162.7V38.9936ZM162.7 24.7919H168.146C169.153 24.7919 170.046 24.6166 170.827 24.2659C171.619 23.904 172.241 23.3949 172.693 22.7389C173.157 22.0828 173.389 21.2966 173.389 20.3804C173.389 19.1248 172.942 18.1124 172.049 17.3433C171.166 16.5741 169.911 16.1895 168.282 16.1895H162.7V24.7919ZM203.519 33.9034V18.9382H210.747V45H203.807V40.2661H203.536C202.948 41.7932 201.969 43.0205 200.6 43.948C199.243 44.8756 197.586 45.3393 195.629 45.3393C193.887 45.3393 192.354 44.9434 191.031 44.1516C189.707 43.3598 188.672 42.2343 187.926 40.7751C187.191 39.3159 186.817 37.5683 186.806 35.5322V18.9382H194.034V34.2427C194.045 35.7811 194.458 36.9971 195.273 37.8907C196.087 38.7843 197.179 39.2311 198.547 39.2311C199.418 39.2311 200.233 39.0332 200.991 38.6373C201.748 38.23 202.359 37.6305 202.823 36.8387C203.298 36.0469 203.53 35.0685 203.519 33.9034ZM228.406 45.509C225.725 45.509 223.417 44.9661 221.483 43.8802C219.56 42.7829 218.078 41.2333 217.037 39.2311C215.997 37.2177 215.476 34.8366 215.476 32.0879C215.476 29.407 215.997 27.0542 217.037 25.0295C218.078 23.0047 219.543 21.4267 221.432 20.2956C223.332 19.1644 225.561 18.5988 228.117 18.5988C229.836 18.5988 231.437 18.876 232.919 19.4302C234.412 19.9732 235.713 20.7933 236.821 21.8905C237.941 22.9877 238.812 24.3677 239.434 26.0305C240.056 27.682 240.368 29.6163 240.368 31.8334V33.8185H218.361V29.3392H233.564C233.564 28.2985 233.337 27.3766 232.885 26.5735C232.432 25.7704 231.805 25.1426 231.002 24.6901C230.21 24.2263 229.288 23.9944 228.236 23.9944C227.139 23.9944 226.166 24.249 225.318 24.758C224.48 25.2557 223.824 25.9287 223.349 26.7771C222.874 27.6141 222.631 28.5473 222.62 29.5767V33.8355C222.62 35.125 222.857 36.2392 223.332 37.1781C223.819 38.1169 224.503 38.8409 225.385 39.3499C226.268 39.8589 227.314 40.1134 228.524 40.1134C229.327 40.1134 230.063 40.0003 230.73 39.7741C231.397 39.5478 231.969 39.2085 232.444 38.756C232.919 38.3036 233.281 37.7493 233.53 37.0932L240.215 37.5344C239.875 39.1406 239.18 40.5432 238.128 41.7423C237.087 42.93 235.741 43.8575 234.09 44.5249C232.449 45.181 230.555 45.509 228.406 45.509ZM252.313 29.933V45H245.084V18.9382H251.973V23.5363H252.279C252.855 22.0206 253.823 20.8216 255.18 19.9393C256.537 19.0456 258.183 18.5988 260.118 18.5988C261.927 18.5988 263.505 18.9947 264.851 19.7865C266.197 20.5784 267.244 21.7095 267.99 23.18C268.737 24.6392 269.11 26.3812 269.11 28.406V45H261.882V29.6955C261.893 28.1005 261.486 26.8563 260.66 25.9627C259.835 25.0577 258.698 24.6053 257.25 24.6053C256.277 24.6053 255.418 24.8145 254.671 25.2331C253.936 25.6516 253.359 26.2624 252.94 27.0655C252.533 27.8573 252.324 28.8132 252.313 29.933ZM131.929 60.2447C131.794 58.876 131.211 57.8127 130.182 57.0548C129.152 56.2969 127.755 55.918 125.991 55.918C124.792 55.918 123.779 56.0877 122.954 56.427C122.128 56.7551 121.494 57.2132 121.053 57.8014C120.623 58.3896 120.409 59.057 120.409 59.8035C120.386 60.4257 120.516 60.9686 120.799 61.4324C121.093 61.8962 121.494 62.2977 122.003 62.6371C122.512 62.9651 123.101 63.2535 123.768 63.5024C124.435 63.7399 125.148 63.9435 125.906 64.1132L129.028 64.8598C130.544 65.1991 131.935 65.6516 133.202 66.2172C134.469 66.7827 135.566 67.4784 136.494 68.3041C137.421 69.1299 138.139 70.1027 138.648 71.2225C139.169 72.3424 139.435 73.6262 139.446 75.0741C139.435 77.2007 138.892 79.0445 137.817 80.6055C136.754 82.1551 135.215 83.3598 133.202 84.2195C131.2 85.0679 128.785 85.4921 125.957 85.4921C123.152 85.4921 120.708 85.0622 118.627 84.2025C116.557 83.3429 114.939 82.0703 113.774 80.3849C112.621 78.6882 112.015 76.5899 111.959 74.09H119.068C119.147 75.2551 119.481 76.2279 120.069 77.0084C120.669 77.7776 121.466 78.3601 122.462 78.756C123.468 79.1406 124.605 79.3329 125.872 79.3329C127.116 79.3329 128.197 79.1519 129.113 78.79C130.04 78.428 130.759 77.9246 131.268 77.2799C131.777 76.6351 132.031 75.8942 132.031 75.0571C132.031 74.2766 131.799 73.6206 131.335 73.0889C130.883 72.5573 130.216 72.1048 129.333 71.7315C128.462 71.3583 127.393 71.0189 126.127 70.7135L122.343 69.7633C119.413 69.0507 117.1 67.9365 115.403 66.4208C113.706 64.905 112.864 62.8633 112.875 60.2956C112.864 58.1916 113.424 56.3535 114.555 54.7812C115.697 53.2089 117.264 51.9816 119.255 51.0993C121.246 50.217 123.508 49.7758 126.042 49.7758C128.621 49.7758 130.872 50.217 132.795 51.0993C134.729 51.9816 136.233 53.2089 137.308 54.7812C138.383 56.3535 138.937 58.1747 138.971 60.2447H131.929ZM151.684 85.4921C150.021 85.4921 148.539 85.2036 147.238 84.6267C145.937 84.0385 144.908 83.1732 144.15 82.0307C143.403 80.8769 143.03 79.4404 143.03 77.721C143.03 76.2731 143.296 75.0571 143.828 74.073C144.359 73.0889 145.083 72.2971 146 71.6976C146.916 71.0981 147.956 70.6456 149.121 70.3402C150.298 70.0348 151.531 69.8199 152.82 69.6955C154.336 69.5371 155.558 69.3901 156.485 69.2543C157.413 69.1073 158.086 68.8923 158.504 68.6096C158.923 68.3268 159.132 67.9082 159.132 67.354V67.2522C159.132 66.1776 158.793 65.3462 158.114 64.758C157.447 64.1698 156.497 63.8757 155.264 63.8757C153.963 63.8757 152.928 64.1641 152.159 64.741C151.389 65.3066 150.88 66.0192 150.632 66.8789L143.946 66.3359C144.286 64.7523 144.953 63.3836 145.949 62.2298C146.944 61.0648 148.228 60.1711 149.8 59.549C151.384 58.9156 153.216 58.5988 155.298 58.5988C156.745 58.5988 158.131 58.7685 159.455 59.1079C160.789 59.4472 161.971 59.9732 163.001 60.6858C164.041 61.3984 164.862 62.3147 165.461 63.4345C166.061 64.5431 166.36 65.8722 166.36 67.4218V85H159.505V81.386H159.302C158.883 82.2004 158.323 82.9187 157.622 83.5408C156.921 84.1516 156.078 84.6324 155.094 84.983C154.11 85.3224 152.973 85.4921 151.684 85.4921ZM153.754 80.5037C154.817 80.5037 155.756 80.2944 156.57 79.8759C157.385 79.446 158.024 78.8691 158.487 78.1452C158.951 77.4213 159.183 76.6012 159.183 75.6849V72.9193C158.957 73.0663 158.646 73.2021 158.25 73.3265C157.865 73.4396 157.43 73.5471 156.943 73.6489C156.457 73.7393 155.971 73.8242 155.484 73.9034C154.998 73.9712 154.557 74.0334 154.161 74.09C153.312 74.2144 152.572 74.4124 151.938 74.6839C151.305 74.9553 150.813 75.323 150.462 75.7867C150.111 76.2392 149.936 76.8048 149.936 77.4835C149.936 78.4676 150.292 79.2198 151.005 79.7401C151.729 80.2491 152.645 80.5037 153.754 80.5037ZM172.104 85V50.2509H179.332V63.3158H179.552C179.869 62.6144 180.327 61.9018 180.927 61.1779C181.538 60.4426 182.329 59.8318 183.302 59.3454C184.286 58.8477 185.508 58.5988 186.967 58.5988C188.867 58.5988 190.621 59.0965 192.227 60.092C193.833 61.0761 195.117 62.5635 196.079 64.5544C197.04 66.5339 197.521 69.0168 197.521 72.003C197.521 74.9101 197.051 77.3647 196.113 79.3668C195.185 81.3577 193.918 82.8678 192.312 83.8971C190.717 84.9152 188.93 85.4242 186.95 85.4242C185.548 85.4242 184.354 85.1923 183.37 84.7285C182.397 84.2647 181.6 83.6822 180.978 82.9809C180.356 82.2683 179.88 81.55 179.552 80.826H179.23V85H172.104ZM179.179 71.9691C179.179 73.5188 179.394 74.8705 179.824 76.0243C180.254 77.1781 180.876 78.0773 181.69 78.7221C182.505 79.3555 183.494 79.6723 184.66 79.6723C185.836 79.6723 186.831 79.3499 187.646 78.7051C188.46 78.0491 189.077 77.1441 189.495 75.9903C189.925 74.8253 190.14 73.4848 190.14 71.9691C190.14 70.4647 189.931 69.1412 189.512 67.9987C189.094 66.8563 188.477 65.9627 187.663 65.3179C186.848 64.6731 185.847 64.3508 184.66 64.3508C183.483 64.3508 182.488 64.6618 181.673 65.284C180.87 65.9061 180.254 66.7884 179.824 67.9309C179.394 69.0733 179.179 70.4194 179.179 71.9691ZM214.119 85.509C211.483 85.509 209.204 84.9491 207.281 83.8293C205.37 82.6981 203.893 81.1258 202.853 79.1123C201.812 77.0876 201.292 74.7404 201.292 72.0709C201.292 69.3787 201.812 67.0259 202.853 65.0125C203.893 62.9877 205.37 61.4154 207.281 60.2956C209.204 59.1644 211.483 58.5988 214.119 58.5988C216.755 58.5988 219.028 59.1644 220.94 60.2956C222.863 61.4154 224.345 62.9877 225.385 65.0125C226.426 67.0259 226.946 69.3787 226.946 72.0709C226.946 74.7404 226.426 77.0876 225.385 79.1123C224.345 81.1258 222.863 82.6981 220.94 83.8293C219.028 84.9491 216.755 85.509 214.119 85.509ZM214.153 79.9098C215.352 79.9098 216.353 79.5705 217.156 78.8918C217.959 78.2018 218.565 77.2629 218.972 76.0752C219.39 74.8875 219.6 73.5357 219.6 72.02C219.6 70.5042 219.39 69.1525 218.972 67.9648C218.565 66.7771 217.959 65.8382 217.156 65.1482C216.353 64.4582 215.352 64.1132 214.153 64.1132C212.943 64.1132 211.925 64.4582 211.099 65.1482C210.284 65.8382 209.668 66.7771 209.249 67.9648C208.842 69.1525 208.639 70.5042 208.639 72.02C208.639 73.5357 208.842 74.8875 209.249 76.0752C209.668 77.2629 210.284 78.2018 211.099 78.8918C211.925 79.5705 212.943 79.9098 214.153 79.9098ZM231.646 85V58.9382H238.654V63.4854H238.925C239.4 61.8679 240.198 60.6462 241.318 59.8205C242.438 58.9834 243.727 58.5649 245.186 58.5649C245.548 58.5649 245.938 58.5875 246.357 58.6328C246.776 58.678 247.143 58.7402 247.46 58.8194V65.2331C247.121 65.1313 246.651 65.0408 246.052 64.9616C245.452 64.8824 244.903 64.8428 244.406 64.8428C243.342 64.8428 242.392 65.0747 241.555 65.5385C240.73 65.9909 240.073 66.6244 239.587 67.4388C239.112 68.2532 238.874 69.1921 238.874 70.2554V85H231.646ZM259.833 50.2509L259.172 74.5821H252.962L252.283 50.2509H259.833ZM256.067 85.4412C254.947 85.4412 253.985 85.0452 253.182 84.2534C252.379 83.4503 251.983 82.4888 251.994 81.369C251.983 80.2605 252.379 79.3103 253.182 78.5185C253.985 77.7267 254.947 77.3308 256.067 77.3308C257.141 77.3308 258.086 77.7267 258.9 78.5185C259.715 79.3103 260.127 80.2605 260.139 81.369C260.127 82.1156 259.929 82.7999 259.545 83.422C259.172 84.0329 258.68 84.5249 258.069 84.8982C257.458 85.2602 256.791 85.4412 256.067 85.4412Z" fill="black"/>
</g>
<defs>
<filter id="filter0_d_42_540" x="0" y="8" width="88" height="88" filterUnits="userSpaceOnUse" color-interpolation-filters="sRGB">
<feFlood flood-opacity="0" result="BackgroundImageFix"/>
<feColorMatrix in="SourceAlpha" type="matrix" values="0 0 0 0 0 0 0 0 0 0 0 0 0 0 0 0 0 0 127 0" result="hardAlpha"/>
<feOffset dy="4"/>
<feGaussianBlur stdDeviation="2"/>
<feComposite in2="hardAlpha" operator="out"/>
<feColorMatrix type="matrix" values="0 0 0 0 1 0 0 0 0 0.470588 0 0 0 0 0.309804 0 0 0 0.55 0"/>
<feBlend mode="normal" in2="BackgroundImageFix" result="effect1_dropShadow_42_540"/>
<feBlend mode="normal" in="SourceGraphic" in2="effect1_dropShadow_42_540" result="shape"/>
</filter>
<filter id="filter1_d_42_540" x="98.0202" y="10.2509" width="175.09" height="83.2581" filterUnits="userSpaceOnUse" color-interpolation-filters="sRGB">
<feFlood flood-opacity="0" result="BackgroundImageFix"/>
<feColorMatrix in="SourceAlpha" type="matrix" values="0 0 0 0 0 0 0 0 0 0 0 0 0 0 0 0 0 0 127 0" result="hardAlpha"/>
<feOffset dy="4"/>
<feGaussianBlur stdDeviation="2"/>
<feComposite in2="hardAlpha" operator="out"/>
<feColorMatrix type="matrix" values="0 0 0 0 1 0 0 0 0 0.470588 0 0 0 0 0.309804 0 0 0 0.55 0"/>
<feBlend mode="normal" in2="BackgroundImageFix" result="effect1_dropShadow_42_540"/>
<feBlend mode="normal" in="SourceGraphic" in2="effect1_dropShadow_42_540" result="shape"/>
</filter>
</defs>
</svg>
